<?xml version="1.0" encoding="UTF-8"?>
<svg width="221px" height="30px" viewBox="0 0 221 30" version="1.1" xmlns="http://www.w3.org/2000/svg" xmlns:xlink="http://www.w3.org/1999/xlink">
    <!-- Generator: sketchtool 58 (101010) - https://sketch.com -->
    <title>76FF2278-ED03-4F58-B4E6-92B2E1B8FF6F</title>
    <desc>Created with sketchtool.</desc>
    <g id="Page-1" stroke="none" stroke-width="1" fill="none" fill-rule="evenodd">
        <g id="Desktop-HD" transform="translate(-81.000000, -40.000000)" fill="#FFFFFF" fill-rule="nonzero">
            <g id="Header">
                <path d="M97.224,48.224 L102.088,48.224 C101.938666,46.9013267 101.576003,45.7280051 101,44.704 C100.423997,43.6799949 99.6933378,42.8213368 98.808,42.128 C97.9226622,41.4346632 96.9200056,40.9066685 95.8,40.544 C94.6799944,40.1813315 93.490673,40 92.232,40 C90.4826579,40 88.9093403,40.3093302 87.512,40.928 C86.1146597,41.5466698 84.9360048,42.3999946 83.976,43.488 C83.0159952,44.5760054 82.2800026,45.8506594 81.768,47.312 C81.2559974,48.7733406 81,50.3573248 81,52.064 C81,53.7280083 81.2559974,55.2799928 81.768,56.72 C82.2800026,58.1600072 83.0159952,59.413328 83.976,60.48 C84.9360048,61.546672 86.1146597,62.383997 87.512,62.992 C88.9093403,63.600003 90.4826579,63.904 92.232,63.904 C93.640007,63.904 94.9306608,63.6906688 96.104,63.264 C97.2773392,62.8373312 98.301329,62.2186707 99.176,61.408 C100.050671,60.5973293 100.754664,59.6160058 101.288,58.464 C101.821336,57.3119942 102.151999,56.0213405 102.28,54.592 L97.416,54.592 C97.223999,56.1280077 96.6960043,57.3653286 95.832,58.304 C94.9679957,59.2426714 93.7680077,59.712 92.232,59.712 C91.1013277,59.712 90.1413373,59.4933355 89.352,59.056 C88.5626627,58.6186645 87.9226691,58.037337 87.432,57.312 C86.9413309,56.586663 86.5840011,55.7706712 86.36,54.864 C86.1359989,53.9573288 86.024,53.0240048 86.024,52.064 C86.024,51.0613283 86.1359989,50.0906714 86.36,49.152 C86.5840011,48.2133286 86.9413309,47.3760037 87.432,46.64 C87.9226691,45.9039963 88.5626627,45.3173355 89.352,44.88 C90.1413373,44.4426645 91.1013277,44.224 92.232,44.224 C92.8506698,44.224 93.4426638,44.3253323 94.008,44.528 C94.5733362,44.7306677 95.0799978,45.0133315 95.528,45.376 C95.9760022,45.7386685 96.3493318,46.1599976 96.648,46.64 C96.9466682,47.1200024 97.1386662,47.6479971 97.224,48.224 Z M109.256,55.136 C109.256,54.4746634 109.319999,53.824 109.448,53.184 C109.576001,52.5439968 109.794665,51.9786691 110.104,51.488 C110.413335,50.9973309 110.823997,50.5973349 111.336,50.288 C111.848003,49.9786651 112.487996,49.824 113.256,49.824 C114.024004,49.824 114.669331,49.9786651 115.192,50.288 C115.714669,50.5973349 116.130665,50.9973309 116.44,51.488 C116.749335,51.9786691 116.967999,52.5439968 117.096,53.184 C117.224001,53.824 117.288,54.4746634 117.288,55.136 C117.288,55.7973366 117.224001,56.4426635 117.096,57.072 C116.967999,57.7013365 116.749335,58.2666642 116.44,58.768 C116.130665,59.2693358 115.714669,59.6693318 115.192,59.968 C114.669331,60.2666682 114.024004,60.416 113.256,60.416 C112.487996,60.416 111.848003,60.2666682 111.336,59.968 C110.823997,59.6693318 110.413335,59.2693358 110.104,58.768 C109.794665,58.2666642 109.576001,57.7013365 109.448,57.072 C109.319999,56.4426635 109.256,55.7973366 109.256,55.136 Z M104.712,55.136 C104.712,56.4586733 104.914665,57.653328 105.32,58.72 C105.725335,59.786672 106.30133,60.6986629 107.048,61.456 C107.79467,62.2133371 108.690661,62.7946646 109.736,63.2 C110.781339,63.6053354 111.95466,63.808 113.256,63.808 C114.55734,63.808 115.735995,63.6053354 116.792,63.2 C117.848005,62.7946646 118.74933,62.2133371 119.496,61.456 C120.24267,60.6986629 120.818665,59.786672 121.224,58.72 C121.629335,57.653328 121.832,56.4586733 121.832,55.136 C121.832,53.8133267 121.629335,52.6133387 121.224,51.536 C120.818665,50.4586613 120.24267,49.5413371 119.496,48.784 C118.74933,48.0266629 117.848005,47.4400021 116.792,47.024 C115.735995,46.6079979 114.55734,46.4 113.256,46.4 C111.95466,46.4 110.781339,46.6079979 109.736,47.024 C108.690661,47.4400021 107.79467,48.0266629 107.048,48.784 C106.30133,49.5413371 105.725335,50.4586613 105.32,51.536 C104.914665,52.6133387 104.712,53.8133267 104.712,55.136 Z M124.904,46.848 L124.904,63.392 L129.448,63.392 L129.448,53.792 C129.448,52.9813293 129.565332,52.3253358 129.8,51.824 C130.034668,51.3226642 130.317332,50.938668 130.648,50.672 C130.978668,50.405332 131.319998,50.2240005 131.672,50.128 C132.024002,50.0319995 132.306666,49.984 132.52,49.984 C133.245337,49.984 133.794665,50.1066654 134.168,50.352 C134.541335,50.5973346 134.807999,50.9226646 134.968,51.328 C135.128001,51.7333354 135.218667,52.1759976 135.24,52.656 C135.261333,53.1360024 135.272,53.6213309 135.272,54.112 L135.272,63.392 L139.816,63.392 L139.816,54.176 C139.816,53.6639974 139.853333,53.1573358 139.928,52.656 C140.002667,52.1546642 140.151999,51.7066686 140.376,51.312 C140.600001,50.9173314 140.909331,50.5973346 141.304,50.352 C141.698669,50.1066654 142.215997,49.984 142.856,49.984 C143.496003,49.984 144.002665,50.0906656 144.376,50.304 C144.749335,50.5173344 145.031999,50.8053315 145.224,51.168 C145.416001,51.5306685 145.533333,51.9573309 145.576,52.448 C145.618667,52.9386691 145.64,53.4613306 145.64,54.016 L145.64,63.392 L150.184,63.392 L150.184,52.32 C150.184,51.253328 150.034668,50.3413371 149.736,49.584 C149.437332,48.8266629 149.021336,48.2133357 148.488,47.744 C147.954664,47.2746643 147.31467,46.9333344 146.568,46.72 C145.82133,46.5066656 145.010671,46.4 144.136,46.4 C142.983994,46.4 141.986671,46.6773306 141.144,47.232 C140.301329,47.7866694 139.634669,48.426663 139.144,49.152 C138.695998,48.1279949 138.040004,47.4133354 137.176,47.008 C136.311996,46.6026646 135.357339,46.4 134.312,46.4 C133.223995,46.4 132.258671,46.6346643 131.416,47.104 C130.573329,47.5733357 129.853336,48.2346624 129.256,49.088 L129.192,49.088 L129.192,46.848 L124.904,46.848 Z M162.12,60.416 C161.394663,60.416 160.776003,60.2666682 160.264,59.968 C159.751997,59.6693318 159.341335,59.2800024 159.032,58.8 C158.722665,58.3199976 158.498667,57.7600032 158.36,57.12 C158.221333,56.4799968 158.152,55.8293366 158.152,55.168 C158.152,54.4853299 158.215999,53.824 158.344,53.184 C158.472001,52.5439968 158.690665,51.9786691 159,51.488 C159.309335,50.9973309 159.714664,50.5973349 160.216,50.288 C160.717336,49.9786651 161.34133,49.824 162.088,49.824 C162.813337,49.824 163.426664,49.9786651 163.928,50.288 C164.429336,50.5973349 164.839998,51.0026642 165.16,51.504 C165.480002,52.0053358 165.709333,52.5759968 165.848,53.216 C165.986667,53.8560032 166.056,54.5066634 166.056,55.168 C166.056,55.8293366 165.992001,56.4799968 165.864,57.12 C165.735999,57.7600032 165.517335,58.3199976 165.208,58.8 C164.898665,59.2800024 164.493336,59.6693318 163.992,59.968 C163.490664,60.2666682 162.86667,60.416 162.12,60.416 Z M153.768,46.848 L153.768,69.184 L158.312,69.184 L158.312,61.344 L158.376,61.344 C158.930669,62.1546707 159.639996,62.7679979 160.504,63.184 C161.368004,63.6000021 162.311995,63.808 163.336,63.808 C164.552006,63.808 165.613329,63.5733357 166.52,63.104 C167.426671,62.6346643 168.183997,62.0053373 168.792,61.216 C169.400003,60.4266627 169.853332,59.5200051 170.152,58.496 C170.450668,57.4719949 170.6,56.4053389 170.6,55.296 C170.6,54.1226608 170.450668,52.9973387 170.152,51.92 C169.853332,50.8426613 169.39467,49.8986707 168.776,49.088 C168.15733,48.2773293 167.378671,47.6266691 166.44,47.136 C165.501329,46.6453309 164.38134,46.4 163.08,46.4 C162.055995,46.4 161.117338,46.6026646 160.264,47.008 C159.410662,47.4133354 158.706669,48.0639955 158.152,48.96 L158.088,48.96 L158.088,46.848 L153.768,46.848 Z M173.128,51.936 C173.192,50.869328 173.458664,49.9840035 173.928,49.28 C174.397336,48.5759965 174.994663,48.0106688 175.72,47.584 C176.445337,47.1573312 177.261329,46.8533342 178.168,46.672 C179.074671,46.4906658 179.986662,46.4 180.904,46.4 C181.736004,46.4 182.578662,46.4586661 183.432,46.576 C184.285338,46.6933339 185.063996,46.922665 185.768,47.264 C186.472004,47.605335 187.047998,48.079997 187.496,48.688 C187.944002,49.296003 188.168,50.1013283 188.168,51.104 L188.168,59.712 C188.168,60.4586704 188.210666,61.1733299 188.296,61.856 C188.381334,62.5386701 188.530666,63.050665 188.744,63.392 L184.136,63.392 C184.050666,63.1359987 183.981334,62.874668 183.928,62.608 C183.874666,62.341332 183.837333,62.0693347 183.816,61.792 C183.090663,62.5386704 182.237338,63.0613318 181.256,63.36 C180.274662,63.6586682 179.272005,63.808 178.248,63.808 C177.458663,63.808 176.72267,63.712001 176.04,63.52 C175.35733,63.327999 174.760003,63.0293354 174.248,62.624 C173.735997,62.2186646 173.336001,61.7066698 173.048,61.088 C172.759999,60.4693302 172.616,59.7333376 172.616,58.88 C172.616,57.9413286 172.781332,57.168003 173.112,56.56 C173.442668,55.951997 173.869331,55.4666685 174.392,55.104 C174.914669,54.7413315 175.511997,54.4693342 176.184,54.288 C176.856003,54.1066658 177.53333,53.9626672 178.216,53.856 C178.671113,53.7848885 179.121482,53.7232592 179.56711,53.6711111 L180.232,53.6 C180.893337,53.5359997 181.479997,53.4400006 181.992,53.312 C182.504003,53.1839994 182.909332,52.9973346 183.208,52.752 C183.469335,52.5373323 183.608167,52.2369182 183.6245,51.8507506 L183.624,51.68 C183.624,51.1893309 183.544001,50.8000014 183.384,50.512 C183.223999,50.2239986 183.010668,50.0000008 182.744,49.84 C182.477332,49.6799992 182.168002,49.5733336 181.816,49.52 C181.463998,49.4666664 181.085335,49.44 180.68,49.44 C179.783996,49.44 179.080003,49.6319981 178.568,50.016 C178.055997,50.4 177.757334,51.0399955 177.672,51.936 L173.128,51.936 Z M183.624,55.296 C183.431999,55.4666675 183.192001,55.5999995 182.904,55.696 C182.615999,55.7920005 182.306668,55.8719997 181.976,55.936 C181.755554,55.9786669 181.528,56.0165926 181.293334,56.0497778 L180.936,56.096 C180.573332,56.1386669 180.210668,56.1919997 179.848,56.256 C179.506665,56.3200003 179.170668,56.4053328 178.84,56.512 C178.509332,56.6186672 178.221335,56.7626658 177.976,56.944 C177.730665,57.1253342 177.533334,57.3546653 177.384,57.632 C177.234666,57.9093347 177.16,58.2613312 177.16,58.688 C177.16,59.0933354 177.234666,59.4346653 177.384,59.712 C177.533334,59.9893347 177.735999,60.2079992 177.992,60.368 C178.248001,60.5280008 178.546665,60.6399997 178.888,60.704 C179.229335,60.7680003 179.581332,60.8 179.944,60.8 C180.840004,60.8 181.533331,60.6506682 182.024,60.352 C182.514669,60.0533318 182.877332,59.6960021 183.112,59.28 C183.346668,58.8639979 183.490666,58.4426688 183.544,58.016 L183.588445,57.6177771 C183.612148,57.3712589 183.624,57.1626675 183.624,56.992 L183.624,55.296 Z M191.688,46.848 L191.688,63.392 L196.232,63.392 L196.232,54.72 C196.232,53.0346582 196.509331,51.8240037 197.064,51.088 C197.618669,50.3519963 198.51466,49.984 199.752,49.984 C200.840005,49.984 201.597331,50.3199966 202.024,50.992 C202.450669,51.6640034 202.664,52.6826598 202.664,54.048 L202.664,63.392 L207.208,63.392 L207.208,53.216 C207.208,52.1919949 207.117334,51.2586709 206.936,50.416 C206.754666,49.5733291 206.440002,48.8586696 205.992,48.272 C205.543998,47.6853304 204.930671,47.2266683 204.152,46.896 C203.373329,46.5653317 202.376006,46.4 201.16,46.4 C200.199995,46.4 199.261338,46.6186645 198.344,47.056 C197.426662,47.4933355 196.680003,48.1919952 196.104,49.152 L196.008,49.152 L196.008,46.848 L191.688,46.848 Z M218.824,65.44 L225.736,46.848 L221.032,46.848 L217.416,58.176 L217.352,58.176 L213.608,46.848 L208.776,46.848 L214.568,62.368 C214.696001,62.6880016 214.76,63.0293315 214.76,63.392 C214.76,63.8826691 214.616001,64.3306646 214.328,64.736 C214.039999,65.1413354 213.597336,65.3759997 213,65.44 C212.551998,65.4613334 212.104002,65.4506669 211.656,65.408 L210.344,65.28 L210.344,65.28 L210.344,69.024 C210.813336,69.0666669 211.277331,69.1039998 211.736,69.136 C212.194669,69.1680002 212.658664,69.184 213.128,69.184 C214.685341,69.184 215.901329,68.8960029 216.776,68.32 C217.650671,67.7439971 218.333331,66.7840067 218.824,65.44 Z M227.752,40.544 L227.752,63.392 L243.912,63.392 L243.912,59.168 L232.776,59.168 L232.776,40.544 L227.752,40.544 Z M250.28,55.136 C250.28,54.4746634 250.343999,53.824 250.472,53.184 C250.600001,52.5439968 250.818665,51.9786691 251.128,51.488 C251.437335,50.9973309 251.847997,50.5973349 252.36,50.288 C252.872003,49.9786651 253.511996,49.824 254.28,49.824 C255.048004,49.824 255.693331,49.9786651 256.216,50.288 C256.738669,50.5973349 257.154665,50.9973309 257.464,51.488 C257.773335,51.9786691 257.991999,52.5439968 258.12,53.184 C258.248001,53.824 258.312,54.4746634 258.312,55.136 C258.312,55.7973366 258.248001,56.4426635 258.12,57.072 C257.991999,57.7013365 257.773335,58.2666642 257.464,58.768 C257.154665,59.2693358 256.738669,59.6693318 256.216,59.968 C255.693331,60.2666682 255.048004,60.416 254.28,60.416 C253.511996,60.416 252.872003,60.2666682 252.36,59.968 C251.847997,59.6693318 251.437335,59.2693358 251.128,58.768 C250.818665,58.2666642 250.600001,57.7013365 250.472,57.072 C250.343999,56.4426635 250.28,55.7973366 250.28,55.136 Z M245.736,55.136 C245.736,56.4586733 245.938665,57.653328 246.344,58.72 C246.749335,59.786672 247.32533,60.6986629 248.072,61.456 C248.81867,62.2133371 249.714661,62.7946646 250.76,63.2 C251.805339,63.6053354 252.97866,63.808 254.28,63.808 C255.58134,63.808 256.759995,63.6053354 257.816,63.2 C258.872005,62.7946646 259.77333,62.2133371 260.52,61.456 C261.26667,60.6986629 261.842665,59.786672 262.248,58.72 C262.653335,57.653328 262.856,56.4586733 262.856,55.136 C262.856,53.8133267 262.653335,52.6133387 262.248,51.536 C261.842665,50.4586613 261.26667,49.5413371 260.52,48.784 C259.77333,48.0266629 258.872005,47.4400021 257.816,47.024 C256.759995,46.6079979 255.58134,46.4 254.28,46.4 C252.97866,46.4 251.805339,46.6079979 250.76,47.024 C249.714661,47.4400021 248.81867,48.0266629 248.072,48.784 C247.32533,49.5413371 246.749335,50.4586613 246.344,51.536 C245.938665,52.6133387 245.736,53.8133267 245.736,55.136 Z M273.512,59.488 C272.807996,59.488 272.221336,59.3386682 271.752,59.04 C271.282664,58.7413318 270.904001,58.3573357 270.616,57.888 C270.327999,57.4186643 270.125334,56.8906696 270.008,56.304 C269.890666,55.7173304 269.832,55.1253363 269.832,54.528 C269.832,53.9093302 269.901333,53.3173362 270.04,52.752 C270.178667,52.1866638 270.402665,51.6853355 270.712,51.248 C271.021335,50.8106645 271.405331,50.4640013 271.864,50.208 C272.322669,49.9519987 272.871997,49.824 273.512,49.824 C274.25867,49.824 274.877331,49.9626653 275.368,50.24 C275.858669,50.5173347 276.253332,50.8906643 276.552,51.36 C276.850668,51.8293357 277.063999,52.367997 277.192,52.976 C277.320001,53.584003 277.384,54.2293299 277.384,54.912 C277.384,55.5093363 277.304001,56.0799973 277.144,56.624 C276.983999,57.1680027 276.744002,57.6533312 276.424,58.08 C276.103998,58.5066688 275.698669,58.8479987 275.208,59.104 C274.717331,59.3600013 274.152003,59.488 273.512,59.488 Z M281.704,62.336 L281.704,46.848 L277.384,46.848 L277.384,49.056 L277.32,49.056 C276.765331,48.0959952 276.077337,47.4133354 275.256,47.008 C274.434663,46.6026646 273.480005,46.4 272.392,46.4 C271.239994,46.4 270.221338,46.6239978 269.336,47.072 C268.450662,47.5200022 267.709336,48.1226629 267.112,48.88 C266.514664,49.6373371 266.061335,50.511995 265.752,51.504 C265.442665,52.496005 265.288,53.525328 265.288,54.592 C265.288,55.7226723 265.421332,56.7946616 265.688,57.808 C265.954668,58.8213384 266.375997,59.7066629 266.952,60.464 C267.528003,61.2213371 268.263996,61.8186645 269.16,62.256 C270.056004,62.6933355 271.12266,62.912 272.36,62.912 C273.362672,62.912 274.317329,62.7040021 275.224,62.288 C276.130671,61.8719979 276.829331,61.226671 277.32,60.352 L277.384,60.352 L277.384,62.528 C277.405333,63.7013392 277.12267,64.6719962 276.536,65.44 C275.94933,66.2080038 275.016006,66.592 273.736,66.592 C272.925329,66.592 272.21067,66.4266683 271.592,66.096 C270.97333,65.7653317 270.557334,65.1733376 270.344,64.32 L265.832,64.32 C265.896,65.2586714 266.157331,66.0639966 266.616,66.736 C267.074669,67.4080034 267.650663,67.9573312 268.344,68.384 C269.037337,68.8106688 269.805329,69.1253323 270.648,69.328 C271.490671,69.5306677 272.317329,69.632 273.128,69.632 C275.026676,69.632 276.541328,69.3760026 277.672,68.864 C278.802672,68.3519974 279.666664,67.7280037 280.264,66.992 C280.861336,66.2559963 281.250666,65.4613376 281.432,64.608 C281.613334,63.7546624 281.704,62.9973366 281.704,62.336 Z M293.384,46.4 C294.68534,46.4 295.863995,46.6079979 296.92,47.024 C297.976005,47.4400021 298.87733,48.0266629 299.624,48.784 C300.37067,49.5413371 300.946665,50.4586613 301.352,51.536 C301.757335,52.6133387 301.96,53.8133267 301.96,55.136 C301.96,56.4586733 301.757335,57.653328 301.352,58.72 C300.946665,59.786672 300.37067,60.6986629 299.624,61.456 C298.87733,62.2133371 297.976005,62.7946646 296.92,63.2 C295.863995,63.6053354 294.68534,63.808 293.384,63.808 C292.08266,63.808 290.909339,63.6053354 289.864,63.2 C288.818661,62.7946646 287.92267,62.2133371 287.176,61.456 C286.42933,60.6986629 285.853335,59.786672 285.448,58.72 C285.042665,57.653328 284.84,56.4586733 284.84,55.136 C284.84,53.8133267 285.042665,52.6133387 285.448,51.536 C285.853335,50.4586613 286.42933,49.5413371 287.176,48.784 C287.92267,48.0266629 288.818661,47.4400021 289.864,47.024 C290.909339,46.6079979 292.08266,46.4 293.384,46.4 Z M293.384,49.824 C292.615996,49.824 291.976003,49.9786651 291.464,50.288 C290.951997,50.5973349 290.541335,50.9973309 290.232,51.488 C289.922665,51.9786691 289.704001,52.5439968 289.576,53.184 C289.447999,53.824 289.384,54.4746634 289.384,55.136 C289.384,55.7973366 289.447999,56.4426635 289.576,57.072 C289.704001,57.7013365 289.922665,58.2666642 290.232,58.768 C290.541335,59.2693358 290.951997,59.6693318 291.464,59.968 C291.976003,60.2666682 292.615996,60.416 293.384,60.416 C294.152004,60.416 294.797331,60.2666682 295.32,59.968 C295.842669,59.6693318 296.258665,59.2693358 296.568,58.768 C296.877335,58.2666642 297.095999,57.7013365 297.224,57.072 C297.352001,56.4426635 297.416,55.7973366 297.416,55.136 C297.416,54.4746634 297.352001,53.824 297.224,53.184 C297.095999,52.5439968 296.877335,51.9786691 296.568,51.488 C296.258665,50.9973309 295.842669,50.5973349 295.32,50.288 C294.797331,49.9786651 294.152004,49.824 293.384,49.824 Z" id="CompanyLogo"></path>
            </g>
        </g>
    </g>
</svg>